<svg xmlns="http://www.w3.org/2000/svg" xmlns:xlink="http://www.w3.org/1999/xlink" version="1.1" x="0px" y="0px" viewBox="0 0 38 50" enable-background="new 0 0 100 100" xml:space="preserve">
  <g>
    <path id="svg_2" d="m6,46.999207l2,0l3,0l15.999998,0l3,0l1.999998,0l2,0l2,0l0,-20l0,-2l-2,0l0,2l-5.999998,0l0,-14l-0.005997,-0.006002c-0.001999,-0.335999 -0.167999,-0.657 -0.464005,-0.841995l-7.530001,-4.706001l0,-3.445999l2,0l0,-2l-2,0l0,-2l-2,0l0,2l-1.999999,0l0,2l1.999999,0l0,3.445999l-7.529997,4.706001c-0.296001,0.184999 -0.462003,0.505997 -0.464003,0.841995l-0.006001,0.006002l0,14l-6,0l0,-2l-2,0l0,2l0,20l2,0l2,0l0.000002,0l0.000002,0zm10.462002,-8.405998c0,-1.835007 0.924999,-2.888 2.537998,-2.888c1.261002,0 2.537998,0.992004 2.537998,2.888c0,0.080002 -0.004997,4.119995 -0.008999,6.405998l-5.057999,0c-0.003002,-2.285004 -0.008999,-6.325996 -0.008999,-6.405998zm7.066998,6.405998c0.003002,-2.287003 0.008999,-6.325996 0.008999,-6.405998c0,-3.175003 -2.337996,-4.888 -4.537994,-4.888c-2.757,0 -4.538001,1.918999 -4.538001,4.888c0,0.080002 0.005999,4.118996 0.008999,6.405998l-2.471001,0l0,-16l13.999997,0l0,16l-2.470999,0zm10.470997,-16l0,16l-2,0l0,-4l-1.999998,0l0,4l-2,0l0,-16l5.999998,0zm-14.999996,-19.820999l4.513,2.820997l-9.026002,0l4.513001,-2.820997zm-7,4.820999l13.999998,0l0,13l-13.999998,0l0,-13zm-2,15l0,16l-2,0l0,-4l-2,0l0,4l-2,0l0,-16l6,0z"/>
   <rect id="svg_3" height="6" width="2" y="31.999203" x="6"/>
   <rect id="svg_4" height="6" width="2" y="31.999203" x="30"/>
   <rect id="svg_5" height="2" width="38" y="47.999203" x="0"/>
   <path id="svg_6" d="m19,15.999207c-2.480999,0 -4.5,2.019005 -4.5,4.5s2.019001,4.5 4.5,4.5s4.5,-2.019005 4.5,-4.5s-2.019001,-4.5 -4.5,-4.5zm0,7c-1.377998,0 -2.5,-1.122002 -2.5,-2.5s1.122002,-2.5 2.5,-2.5s2.5,1.122002 2.5,2.5s-1.122002,2.5 -2.5,2.5z"/>
  </g>
</svg>
